<mxfile host="app.diagrams.net" modified="2024-01-10T19:01:20.388Z" agent="Mozilla/5.0 (Windows NT 10.0; Win64; x64) AppleWebKit/537.36 (KHTML, like Gecko) Chrome/120.0.0.0 Safari/537.36" etag="M2XFXUltKAgLtkQaRBSE" version="22.1.18" type="github">
  <diagram name="Страница — 1" id="Hb7HC62r-5kmaWeTJeMC">
    <mxGraphModel dx="2660" dy="638" grid="1" gridSize="10" guides="1" tooltips="1" connect="1" arrows="1" fold="1" page="1" pageScale="1" pageWidth="827" pageHeight="1169" math="0" shadow="0">
      <root>
        <mxCell id="0" />
        <mxCell id="1" parent="0" />
        <mxCell id="Y7OtBwIMDrIS8E3t_wrS-7" value="Хранилище данных" style="rounded=0;whiteSpace=wrap;html=1;" vertex="1" parent="1">
          <mxGeometry x="50" y="130" width="120" height="60" as="geometry" />
        </mxCell>
        <mxCell id="Y7OtBwIMDrIS8E3t_wrS-10" style="edgeStyle=orthogonalEdgeStyle;rounded=0;orthogonalLoop=1;jettySize=auto;html=1;entryX=0.5;entryY=1;entryDx=0;entryDy=0;" edge="1" parent="1" source="Y7OtBwIMDrIS8E3t_wrS-8" target="Y7OtBwIMDrIS8E3t_wrS-9">
          <mxGeometry relative="1" as="geometry" />
        </mxCell>
        <mxCell id="Y7OtBwIMDrIS8E3t_wrS-12" style="edgeStyle=orthogonalEdgeStyle;rounded=0;orthogonalLoop=1;jettySize=auto;html=1;entryX=0.5;entryY=1;entryDx=0;entryDy=0;" edge="1" parent="1" source="Y7OtBwIMDrIS8E3t_wrS-8" target="Y7OtBwIMDrIS8E3t_wrS-7">
          <mxGeometry relative="1" as="geometry" />
        </mxCell>
        <mxCell id="Y7OtBwIMDrIS8E3t_wrS-14" style="edgeStyle=orthogonalEdgeStyle;rounded=0;orthogonalLoop=1;jettySize=auto;html=1;entryX=0;entryY=0.5;entryDx=0;entryDy=0;" edge="1" parent="1" source="Y7OtBwIMDrIS8E3t_wrS-8" target="Y7OtBwIMDrIS8E3t_wrS-13">
          <mxGeometry relative="1" as="geometry" />
        </mxCell>
        <mxCell id="Y7OtBwIMDrIS8E3t_wrS-8" value="Приложение" style="rounded=0;whiteSpace=wrap;html=1;" vertex="1" parent="1">
          <mxGeometry x="190" y="210" width="120" height="60" as="geometry" />
        </mxCell>
        <mxCell id="Y7OtBwIMDrIS8E3t_wrS-11" style="edgeStyle=orthogonalEdgeStyle;rounded=0;orthogonalLoop=1;jettySize=auto;html=1;" edge="1" parent="1" source="Y7OtBwIMDrIS8E3t_wrS-9" target="Y7OtBwIMDrIS8E3t_wrS-7">
          <mxGeometry relative="1" as="geometry" />
        </mxCell>
        <mxCell id="Y7OtBwIMDrIS8E3t_wrS-9" value="Система просчёта рекомендаций" style="whiteSpace=wrap;html=1;" vertex="1" parent="1">
          <mxGeometry x="190" y="50" width="120" height="60" as="geometry" />
        </mxCell>
        <mxCell id="Y7OtBwIMDrIS8E3t_wrS-13" value="ГИС система для визуализации" style="whiteSpace=wrap;html=1;" vertex="1" parent="1">
          <mxGeometry x="350" y="130" width="120" height="60" as="geometry" />
        </mxCell>
        <mxCell id="Y7OtBwIMDrIS8E3t_wrS-46" style="edgeStyle=orthogonalEdgeStyle;rounded=0;orthogonalLoop=1;jettySize=auto;html=1;strokeWidth=2;endArrow=none;endFill=0;" edge="1" parent="1" source="Y7OtBwIMDrIS8E3t_wrS-15" target="Y7OtBwIMDrIS8E3t_wrS-21">
          <mxGeometry relative="1" as="geometry">
            <Array as="points">
              <mxPoint x="270" y="695" />
              <mxPoint x="270" y="695" />
            </Array>
          </mxGeometry>
        </mxCell>
        <mxCell id="Y7OtBwIMDrIS8E3t_wrS-15" value="" style="shape=cube;whiteSpace=wrap;html=1;boundedLbl=1;backgroundOutline=1;darkOpacity=0.05;darkOpacity2=0.1;" vertex="1" parent="1">
          <mxGeometry x="60" y="390" width="200" height="490" as="geometry" />
        </mxCell>
        <mxCell id="Y7OtBwIMDrIS8E3t_wrS-16" value="&amp;lt;&amp;lt;Linux&amp;gt;&amp;gt;" style="text;html=1;strokeColor=none;fillColor=none;align=center;verticalAlign=middle;whiteSpace=wrap;rounded=0;" vertex="1" parent="1">
          <mxGeometry x="140" y="410" width="60" height="30" as="geometry" />
        </mxCell>
        <mxCell id="Y7OtBwIMDrIS8E3t_wrS-18" value="" style="shape=cube;whiteSpace=wrap;html=1;boundedLbl=1;backgroundOutline=1;darkOpacity=0.05;darkOpacity2=0.1;" vertex="1" parent="1">
          <mxGeometry x="350" y="400" width="160" height="150" as="geometry" />
        </mxCell>
        <mxCell id="Y7OtBwIMDrIS8E3t_wrS-19" value="&amp;lt;&amp;lt;MongoCloud&amp;gt;&amp;gt;" style="text;html=1;strokeColor=none;fillColor=none;align=center;verticalAlign=middle;whiteSpace=wrap;rounded=0;" vertex="1" parent="1">
          <mxGeometry x="413" y="430" width="60" height="30" as="geometry" />
        </mxCell>
        <mxCell id="Y7OtBwIMDrIS8E3t_wrS-20" value="MongoDB" style="whiteSpace=wrap;html=1;" vertex="1" parent="1">
          <mxGeometry x="383" y="470" width="120" height="60" as="geometry" />
        </mxCell>
        <mxCell id="Y7OtBwIMDrIS8E3t_wrS-21" value="" style="shape=cube;whiteSpace=wrap;html=1;boundedLbl=1;backgroundOutline=1;darkOpacity=0.05;darkOpacity2=0.1;" vertex="1" parent="1">
          <mxGeometry x="314" y="630" width="200" height="250" as="geometry" />
        </mxCell>
        <mxCell id="Y7OtBwIMDrIS8E3t_wrS-22" value="&amp;lt;&amp;lt;Mobile&amp;gt;&amp;gt;" style="text;html=1;strokeColor=none;fillColor=none;align=center;verticalAlign=middle;whiteSpace=wrap;rounded=0;" vertex="1" parent="1">
          <mxGeometry x="394" y="645" width="60" height="30" as="geometry" />
        </mxCell>
        <mxCell id="Y7OtBwIMDrIS8E3t_wrS-23" value="" style="whiteSpace=wrap;html=1;" vertex="1" parent="1">
          <mxGeometry x="-280" y="580" width="120" height="100" as="geometry" />
        </mxCell>
        <mxCell id="Y7OtBwIMDrIS8E3t_wrS-25" value="Docker container" style="text;html=1;strokeColor=none;fillColor=none;align=center;verticalAlign=middle;whiteSpace=wrap;rounded=0;" vertex="1" parent="1">
          <mxGeometry x="-250" y="585" width="60" height="30" as="geometry" />
        </mxCell>
        <mxCell id="Y7OtBwIMDrIS8E3t_wrS-28" value="AnalyticsService" style="rounded=0;whiteSpace=wrap;html=1;" vertex="1" parent="1">
          <mxGeometry x="-265" y="620" width="90" height="40" as="geometry" />
        </mxCell>
        <mxCell id="Y7OtBwIMDrIS8E3t_wrS-36" value="" style="whiteSpace=wrap;html=1;" vertex="1" parent="1">
          <mxGeometry x="364" y="675" width="120" height="190" as="geometry" />
        </mxCell>
        <mxCell id="Y7OtBwIMDrIS8E3t_wrS-43" value="" style="whiteSpace=wrap;html=1;" vertex="1" parent="1">
          <mxGeometry x="100" y="470" width="140" height="390" as="geometry" />
        </mxCell>
        <mxCell id="Y7OtBwIMDrIS8E3t_wrS-39" value="Application" style="text;html=1;align=center;verticalAlign=middle;resizable=0;points=[];autosize=1;strokeColor=none;fillColor=none;" vertex="1" parent="1">
          <mxGeometry x="384" y="685" width="80" height="30" as="geometry" />
        </mxCell>
        <mxCell id="Y7OtBwIMDrIS8E3t_wrS-40" value="YandexMaps" style="whiteSpace=wrap;html=1;" vertex="1" parent="1">
          <mxGeometry x="384" y="725" width="80" height="30" as="geometry" />
        </mxCell>
        <mxCell id="Y7OtBwIMDrIS8E3t_wrS-41" value="KtorHttpClient" style="whiteSpace=wrap;html=1;" vertex="1" parent="1">
          <mxGeometry x="384" y="765" width="80" height="30" as="geometry" />
        </mxCell>
        <mxCell id="Y7OtBwIMDrIS8E3t_wrS-29" value="" style="whiteSpace=wrap;html=1;" vertex="1" parent="1">
          <mxGeometry x="110" y="515" width="120" height="100" as="geometry" />
        </mxCell>
        <mxCell id="Y7OtBwIMDrIS8E3t_wrS-30" value="Docker container" style="text;html=1;strokeColor=none;fillColor=none;align=center;verticalAlign=middle;whiteSpace=wrap;rounded=0;" vertex="1" parent="1">
          <mxGeometry x="140" y="520" width="60" height="30" as="geometry" />
        </mxCell>
        <mxCell id="Y7OtBwIMDrIS8E3t_wrS-31" value="AnalyticsService" style="rounded=0;whiteSpace=wrap;html=1;" vertex="1" parent="1">
          <mxGeometry x="125" y="555" width="90" height="40" as="geometry" />
        </mxCell>
        <mxCell id="Y7OtBwIMDrIS8E3t_wrS-32" value="" style="whiteSpace=wrap;html=1;" vertex="1" parent="1">
          <mxGeometry x="110" y="630" width="120" height="100" as="geometry" />
        </mxCell>
        <mxCell id="Y7OtBwIMDrIS8E3t_wrS-33" value="Docker container" style="text;html=1;strokeColor=none;fillColor=none;align=center;verticalAlign=middle;whiteSpace=wrap;rounded=0;" vertex="1" parent="1">
          <mxGeometry x="140" y="635" width="60" height="30" as="geometry" />
        </mxCell>
        <mxCell id="Y7OtBwIMDrIS8E3t_wrS-34" value="DataService" style="rounded=0;whiteSpace=wrap;html=1;" vertex="1" parent="1">
          <mxGeometry x="125" y="670" width="90" height="40" as="geometry" />
        </mxCell>
        <mxCell id="Y7OtBwIMDrIS8E3t_wrS-44" value="Docker compose" style="text;html=1;strokeColor=none;fillColor=none;align=center;verticalAlign=middle;whiteSpace=wrap;rounded=0;" vertex="1" parent="1">
          <mxGeometry x="140" y="475" width="60" height="30" as="geometry" />
        </mxCell>
        <mxCell id="Y7OtBwIMDrIS8E3t_wrS-48" style="edgeStyle=orthogonalEdgeStyle;rounded=0;orthogonalLoop=1;jettySize=auto;html=1;entryX=0.993;entryY=0.174;entryDx=0;entryDy=0;entryPerimeter=0;endArrow=none;endFill=0;strokeWidth=2;" edge="1" parent="1" source="Y7OtBwIMDrIS8E3t_wrS-18" target="Y7OtBwIMDrIS8E3t_wrS-15">
          <mxGeometry relative="1" as="geometry" />
        </mxCell>
        <mxCell id="Y7OtBwIMDrIS8E3t_wrS-49" value="" style="whiteSpace=wrap;html=1;" vertex="1" parent="1">
          <mxGeometry x="110" y="745" width="120" height="100" as="geometry" />
        </mxCell>
        <mxCell id="Y7OtBwIMDrIS8E3t_wrS-50" value="Docker container" style="text;html=1;strokeColor=none;fillColor=none;align=center;verticalAlign=middle;whiteSpace=wrap;rounded=0;" vertex="1" parent="1">
          <mxGeometry x="140" y="750" width="60" height="30" as="geometry" />
        </mxCell>
        <mxCell id="Y7OtBwIMDrIS8E3t_wrS-51" value="DomainService" style="rounded=0;whiteSpace=wrap;html=1;" vertex="1" parent="1">
          <mxGeometry x="125" y="785" width="90" height="40" as="geometry" />
        </mxCell>
        <mxCell id="Y7OtBwIMDrIS8E3t_wrS-92" value="KMongoConnector" style="swimlane;fontStyle=1;align=center;verticalAlign=top;childLayout=stackLayout;horizontal=1;startSize=26;horizontalStack=0;resizeParent=1;resizeParentMax=0;resizeLast=0;collapsible=1;marginBottom=0;whiteSpace=wrap;html=1;" vertex="1" parent="1">
          <mxGeometry x="1050" y="184" width="160" height="112" as="geometry" />
        </mxCell>
        <mxCell id="Y7OtBwIMDrIS8E3t_wrS-93" value="+ connection: Connection" style="text;strokeColor=none;fillColor=none;align=left;verticalAlign=top;spacingLeft=4;spacingRight=4;overflow=hidden;rotatable=0;points=[[0,0.5],[1,0.5]];portConstraint=eastwest;whiteSpace=wrap;html=1;" vertex="1" parent="Y7OtBwIMDrIS8E3t_wrS-92">
          <mxGeometry y="26" width="160" height="26" as="geometry" />
        </mxCell>
        <mxCell id="Y7OtBwIMDrIS8E3t_wrS-94" value="" style="line;strokeWidth=1;fillColor=none;align=left;verticalAlign=middle;spacingTop=-1;spacingLeft=3;spacingRight=3;rotatable=0;labelPosition=right;points=[];portConstraint=eastwest;strokeColor=inherit;" vertex="1" parent="Y7OtBwIMDrIS8E3t_wrS-92">
          <mxGeometry y="52" width="160" height="8" as="geometry" />
        </mxCell>
        <mxCell id="Y7OtBwIMDrIS8E3t_wrS-95" value="+ connect(uri: String)" style="text;strokeColor=none;fillColor=none;align=left;verticalAlign=top;spacingLeft=4;spacingRight=4;overflow=hidden;rotatable=0;points=[[0,0.5],[1,0.5]];portConstraint=eastwest;whiteSpace=wrap;html=1;" vertex="1" parent="Y7OtBwIMDrIS8E3t_wrS-92">
          <mxGeometry y="60" width="160" height="26" as="geometry" />
        </mxCell>
        <mxCell id="Y7OtBwIMDrIS8E3t_wrS-96" value="+ disconnect(uri: String)" style="text;strokeColor=none;fillColor=none;align=left;verticalAlign=top;spacingLeft=4;spacingRight=4;overflow=hidden;rotatable=0;points=[[0,0.5],[1,0.5]];portConstraint=eastwest;whiteSpace=wrap;html=1;" vertex="1" parent="Y7OtBwIMDrIS8E3t_wrS-92">
          <mxGeometry y="86" width="160" height="26" as="geometry" />
        </mxCell>
        <mxCell id="Y7OtBwIMDrIS8E3t_wrS-116" style="edgeStyle=orthogonalEdgeStyle;rounded=0;orthogonalLoop=1;jettySize=auto;html=1;" edge="1" parent="1" source="Y7OtBwIMDrIS8E3t_wrS-97" target="Y7OtBwIMDrIS8E3t_wrS-92">
          <mxGeometry relative="1" as="geometry" />
        </mxCell>
        <mxCell id="Y7OtBwIMDrIS8E3t_wrS-97" value="DatabaseHelper" style="swimlane;fontStyle=1;align=center;verticalAlign=top;childLayout=stackLayout;horizontal=1;startSize=26;horizontalStack=0;resizeParent=1;resizeParentMax=0;resizeLast=0;collapsible=1;marginBottom=0;whiteSpace=wrap;html=1;" vertex="1" parent="1">
          <mxGeometry x="990" y="434" width="280" height="112" as="geometry" />
        </mxCell>
        <mxCell id="Y7OtBwIMDrIS8E3t_wrS-98" value="- masterCollection: Collection&amp;lt;Master&amp;gt;" style="text;strokeColor=none;fillColor=none;align=left;verticalAlign=top;spacingLeft=4;spacingRight=4;overflow=hidden;rotatable=0;points=[[0,0.5],[1,0.5]];portConstraint=eastwest;whiteSpace=wrap;html=1;" vertex="1" parent="Y7OtBwIMDrIS8E3t_wrS-97">
          <mxGeometry y="26" width="280" height="26" as="geometry" />
        </mxCell>
        <mxCell id="Y7OtBwIMDrIS8E3t_wrS-99" value="" style="line;strokeWidth=1;fillColor=none;align=left;verticalAlign=middle;spacingTop=-1;spacingLeft=3;spacingRight=3;rotatable=0;labelPosition=right;points=[];portConstraint=eastwest;strokeColor=inherit;" vertex="1" parent="Y7OtBwIMDrIS8E3t_wrS-97">
          <mxGeometry y="52" width="280" height="8" as="geometry" />
        </mxCell>
        <mxCell id="Y7OtBwIMDrIS8E3t_wrS-100" value="+ getAllMaster(): List&amp;lt;Master&amp;gt;" style="text;strokeColor=none;fillColor=none;align=left;verticalAlign=top;spacingLeft=4;spacingRight=4;overflow=hidden;rotatable=0;points=[[0,0.5],[1,0.5]];portConstraint=eastwest;whiteSpace=wrap;html=1;" vertex="1" parent="Y7OtBwIMDrIS8E3t_wrS-97">
          <mxGeometry y="60" width="280" height="26" as="geometry" />
        </mxCell>
        <mxCell id="Y7OtBwIMDrIS8E3t_wrS-101" value="+ getMasterById(id: String): Master" style="text;strokeColor=none;fillColor=none;align=left;verticalAlign=top;spacingLeft=4;spacingRight=4;overflow=hidden;rotatable=0;points=[[0,0.5],[1,0.5]];portConstraint=eastwest;whiteSpace=wrap;html=1;" vertex="1" parent="Y7OtBwIMDrIS8E3t_wrS-97">
          <mxGeometry y="86" width="280" height="26" as="geometry" />
        </mxCell>
        <mxCell id="Y7OtBwIMDrIS8E3t_wrS-109" value="Master" style="swimlane;fontStyle=0;childLayout=stackLayout;horizontal=1;startSize=26;fillColor=none;horizontalStack=0;resizeParent=1;resizeParentMax=0;resizeLast=0;collapsible=1;marginBottom=0;whiteSpace=wrap;html=1;" vertex="1" parent="1">
          <mxGeometry x="1440" y="394" width="140" height="182" as="geometry" />
        </mxCell>
        <mxCell id="Y7OtBwIMDrIS8E3t_wrS-110" value="+ name: String" style="text;strokeColor=none;fillColor=none;align=left;verticalAlign=top;spacingLeft=4;spacingRight=4;overflow=hidden;rotatable=0;points=[[0,0.5],[1,0.5]];portConstraint=eastwest;whiteSpace=wrap;html=1;" vertex="1" parent="Y7OtBwIMDrIS8E3t_wrS-109">
          <mxGeometry y="26" width="140" height="26" as="geometry" />
        </mxCell>
        <mxCell id="Y7OtBwIMDrIS8E3t_wrS-111" value="+ avgPrice: Double" style="text;strokeColor=none;fillColor=none;align=left;verticalAlign=top;spacingLeft=4;spacingRight=4;overflow=hidden;rotatable=0;points=[[0,0.5],[1,0.5]];portConstraint=eastwest;whiteSpace=wrap;html=1;" vertex="1" parent="Y7OtBwIMDrIS8E3t_wrS-109">
          <mxGeometry y="52" width="140" height="26" as="geometry" />
        </mxCell>
        <mxCell id="Y7OtBwIMDrIS8E3t_wrS-112" value="+ type: String" style="text;strokeColor=none;fillColor=none;align=left;verticalAlign=top;spacingLeft=4;spacingRight=4;overflow=hidden;rotatable=0;points=[[0,0.5],[1,0.5]];portConstraint=eastwest;whiteSpace=wrap;html=1;" vertex="1" parent="Y7OtBwIMDrIS8E3t_wrS-109">
          <mxGeometry y="78" width="140" height="26" as="geometry" />
        </mxCell>
        <mxCell id="Y7OtBwIMDrIS8E3t_wrS-113" value="+ tags: List&amp;lt;String&amp;gt;" style="text;strokeColor=none;fillColor=none;align=left;verticalAlign=top;spacingLeft=4;spacingRight=4;overflow=hidden;rotatable=0;points=[[0,0.5],[1,0.5]];portConstraint=eastwest;whiteSpace=wrap;html=1;" vertex="1" parent="Y7OtBwIMDrIS8E3t_wrS-109">
          <mxGeometry y="104" width="140" height="26" as="geometry" />
        </mxCell>
        <mxCell id="Y7OtBwIMDrIS8E3t_wrS-114" value="+ lat: Double" style="text;strokeColor=none;fillColor=none;align=left;verticalAlign=top;spacingLeft=4;spacingRight=4;overflow=hidden;rotatable=0;points=[[0,0.5],[1,0.5]];portConstraint=eastwest;whiteSpace=wrap;html=1;" vertex="1" parent="Y7OtBwIMDrIS8E3t_wrS-109">
          <mxGeometry y="130" width="140" height="26" as="geometry" />
        </mxCell>
        <mxCell id="Y7OtBwIMDrIS8E3t_wrS-115" value="+ lon: Double" style="text;strokeColor=none;fillColor=none;align=left;verticalAlign=top;spacingLeft=4;spacingRight=4;overflow=hidden;rotatable=0;points=[[0,0.5],[1,0.5]];portConstraint=eastwest;whiteSpace=wrap;html=1;" vertex="1" parent="Y7OtBwIMDrIS8E3t_wrS-109">
          <mxGeometry y="156" width="140" height="26" as="geometry" />
        </mxCell>
      </root>
    </mxGraphModel>
  </diagram>
</mxfile>
